HIERARCHY
ROOT joint_Root
{
	OFFSET 0.0 0.0 0.0
	CHANNELS 6 Xposition Yposition Zposition Zrotation Xrotation Yrotation 
	JOINT Hips
	{
		OFFSET -17.1583 93.1646 452.98
		CHANNELS 6 Xposition Yposition Zposition Zrotation Xrotation Yrotation 
		JOINT Spine
		{
			OFFSET 15.7357 0.0 0.0
			CHANNELS 6 Xposition Yposition Zposition Zrotation Xrotation Yrotation 
			JOINT Chest
			{
				OFFSET 8.98455 -0.406207 0.0
				CHANNELS 6 Xposition Yposition Zposition Zrotation Xrotation Yrotation 
				JOINT Neck
				{
					OFFSET 16.3773 0.0 0.0
					CHANNELS 6 Xposition Yposition Zposition Zrotation Xrotation Yrotation 
					JOINT Head
					{
						OFFSET 6.45672 0.0 0.0
						CHANNELS 6 Xposition Yposition Zposition Zrotation Xrotation Yrotation 
						End Site
						{
							OFFSET 0.0 0.0 0.0
						}
					}
				}
				JOINT Shoulder_L
				{
					OFFSET 12.9942 -0.242716 4.98039
					CHANNELS 6 Xposition Yposition Zposition Zrotation Xrotation Yrotation 
					JOINT UpperArm_L
					{
						OFFSET 5.34809 0.0 0.0
						CHANNELS 6 Xposition Yposition Zposition Zrotation Xrotation Yrotation 
						JOINT LowerArm_L
						{
							OFFSET 24.3286 1.87007e-05 0.0
							CHANNELS 6 Xposition Yposition Zposition Zrotation Xrotation Yrotation 
							JOINT Hand_L
							{
								OFFSET 22.2916 0.0 0.0
								CHANNELS 6 Xposition Yposition Zposition Zrotation Xrotation Yrotation 
								End Site
								{
									OFFSET 0.0 0.0 0.0
								}
							}
						}
					}
				}
				JOINT Shoulder_R
				{
					OFFSET 12.9945 -0.242716 -4.98039
					CHANNELS 6 Xposition Yposition Zposition Zrotation Xrotation Yrotation 
					JOINT UpperArm_R
					{
						OFFSET -5.34813 0.0 0.0
						CHANNELS 6 Xposition Yposition Zposition Zrotation Xrotation Yrotation 
						JOINT LowerArm_R
						{
							OFFSET -24.3289 0.000322201 0.0
							CHANNELS 6 Xposition Yposition Zposition Zrotation Xrotation Yrotation 
							JOINT Hand_R
							{
								OFFSET -22.2915 -0.000108084 0.0
								CHANNELS 6 Xposition Yposition Zposition Zrotation Xrotation Yrotation 
								End Site
								{
									OFFSET 0.0 0.0 0.0
								}
							}
						}
					}
				}
			}
		}
		JOINT UpperLeg_L
		{
			OFFSET -2.19248 -6.46944 0.0
			CHANNELS 6 Xposition Yposition Zposition Zrotation Xrotation Yrotation 
			JOINT LowerLeg_L
			{
				OFFSET 39.0811 0.0 -1.23785e-05
				CHANNELS 6 Xposition Yposition Zposition Zrotation Xrotation Yrotation 
				JOINT Foot_L
				{
					OFFSET 40.9854 0.0 -1.26872e-05
					CHANNELS 6 Xposition Yposition Zposition Zrotation Xrotation Yrotation 
					JOINT Toes_L
					{
						OFFSET 11.7543 0.0 0.0
						CHANNELS 6 Xposition Yposition Zposition Zrotation Xrotation Yrotation 
						End Site
						{
							OFFSET 0.0 0.0 0.0
						}
					}
				}
			}
		}
		JOINT UpperLeg_R
		{
			OFFSET -2.19251 6.46944 0.0
			CHANNELS 6 Xposition Yposition Zposition Zrotation Xrotation Yrotation 
			JOINT LowerLeg_R
			{
				OFFSET -39.0811 -0.00228153 -0.0401928
				CHANNELS 6 Xposition Yposition Zposition Zrotation Xrotation Yrotation 
				JOINT Foot_R
				{
					OFFSET -40.9854 0.0 0.0
					CHANNELS 6 Xposition Yposition Zposition Zrotation Xrotation Yrotation 
					JOINT Toes_R
					{
						OFFSET -11.7543 0.0 0.0
						CHANNELS 6 Xposition Yposition Zposition Zrotation Xrotation Yrotation 
						End Site
						{
							OFFSET 0.0 0.0 0.0
						}
					}
				}
			}
		}
	}
}
MOTION
Frames:	6
Frame Time:	0.0333333
0.000000 0.000000 0.000000 0.000000 0.000000 -0.000000 -2.318210 93.231100 -1.819650 87.688700 1.307740 1.740730 15.735700 0.000005 -0.000001 98.419300 87.673000 -97.321500 8.984550 -0.406207 -0.000000 -3.166810 0.576427 2.212060 16.377300 -0.000001 -0.000001 2.628550 1.004950 -0.738427 6.456720 -0.000001 -0.000000 7.010120 0.518911 2.733950 12.994200 -0.242716 4.980390 -92.568500 8.459320 -73.041800 5.348090 -0.000007 -0.000001 -67.700700 29.388600 -9.601480 24.328600 0.000019 0.000005 8.335060 35.859800 -14.046300 22.291600 -0.000001 0.000005 -15.849800 5.264080 0.946240 12.994500 -0.242716 -4.980390 88.426700 5.796540 -74.785900 -5.348130 -0.000001 -0.000004 -67.799000 31.913800 -7.990130 -24.328900 0.000322 -0.000009 2.195690 10.830900 -11.543300 -22.291500 -0.000108 -0.000004 -9.902620 5.241620 1.654280 -2.192480 -6.469440 -0.000000 -171.525000 -3.691470 -1.022060 39.081100 -0.000007 -0.000012 0.010434 -0.040178 14.558200 40.985400 -0.000006 -0.000013 -2.638680 13.775800 -67.777900 11.754300 -0.000000 0.000003 0.000326 0.161944 -10.008700 -2.192510 6.469440 -0.000001 179.232000 8.455250 -179.425000 -39.081100 -0.002282 -0.040193 0.032237 -0.125524 12.966900 -40.985400 0.000008 0.000006 -3.827190 4.135840 -68.070200 -11.754300 -0.000006 -0.000006 -0.007978 0.255520 -6.196120
0.000000 0.000000 0.000000 0.000000 0.000000 -0.000000 -2.320630 93.183300 -1.489500 87.710200 1.449080 2.083630 15.735700 0.000005 -0.000001 97.219800 87.625200 -96.156700 8.984550 -0.406207 -0.000000 -3.057840 0.496281 2.139730 16.377300 -0.000001 -0.000001 2.692760 1.005780 -0.491801 6.456720 -0.000001 -0.000000 6.598920 0.792610 2.905890 12.994200 -0.242716 4.980390 -92.298800 7.733460 -73.389400 5.348090 -0.000007 -0.000001 -64.143000 27.458600 -15.552700 24.328600 0.000019 0.000005 6.600790 42.932400 -9.645680 22.291600 -0.000001 0.000005 -23.898600 5.428860 -4.053920 12.994500 -0.242716 -4.980390 88.634000 4.991010 -74.671400 -5.348130 -0.000001 -0.000004 -64.917200 30.630500 -12.387400 -24.328900 0.000322 -0.000009 2.237760 14.839800 -8.683300 -22.291500 -0.000108 -0.000004 -17.431000 5.239200 1.729830 -2.192480 -6.469440 -0.000000 -171.471000 -3.805860 -0.564170 39.081100 -0.000007 -0.000012 0.009758 -0.037187 14.703300 40.985400 -0.000006 -0.000013 -2.559990 14.060500 -67.897100 11.754300 -0.000000 0.000003 0.000250 0.163307 -9.953380 -2.192510 6.469440 -0.000001 179.057000 9.154710 -178.887000 -39.081100 -0.002282 -0.040193 0.032190 -0.123975 13.102800 -40.985400 0.000008 0.000006 -3.683680 4.635610 -68.242700 -11.754300 -0.000006 -0.000006 -0.007886 0.254769 -6.226810
0.000000 0.000000 0.000000 0.000000 0.000000 -0.000000 -2.338440 93.172100 -1.140120 87.668000 1.472570 2.066340 15.735700 0.000005 -0.000001 97.520500 87.888600 -96.519500 8.984550 -0.406207 -0.000000 -3.582780 0.453289 2.016840 16.377300 -0.000001 -0.000001 2.930100 1.049190 -0.171273 6.456720 -0.000001 -0.000000 6.338040 1.114420 3.269670 12.994200 -0.242716 4.980390 -91.902400 6.305170 -73.171700 5.348090 -0.000007 -0.000001 -60.624400 20.768100 -21.982400 24.328600 0.000019 0.000005 3.396130 47.663700 -4.591790 22.291600 -0.000001 0.000005 -32.051900 5.450330 -4.591660 12.994500 -0.242716 -4.980390 88.964700 3.636820 -74.096900 -5.348130 -0.000001 -0.000004 -61.430500 25.713300 -17.828300 -24.328900 0.000322 -0.000009 1.438880 16.432300 -5.078700 -22.291500 -0.000108 -0.000004 -25.526400 5.174050 3.403310 -2.192480 -6.469440 -0.000000 -171.321000 -4.338120 -0.233260 39.081100 -0.000007 -0.000012 0.008691 -0.033611 14.499300 40.985400 -0.000006 -0.000013 -2.508000 14.582000 -67.986800 11.754300 -0.000000 0.000003 0.000166 0.164790 -9.893170 -2.192510 6.469440 -0.000001 178.950000 9.831300 -178.510000 -39.081100 -0.002282 -0.040193 0.026454 -0.101674 12.810700 -40.985400 0.000008 0.000006 -3.927500 5.305390 -68.106700 -11.754300 -0.000006 -0.000006 -0.008394 0.258885 -6.058690
0.000000 0.000000 0.000000 0.000000 0.000000 -0.000000 -2.341940 93.181200 -0.748980 87.643300 1.537990 1.654990 15.735700 0.000005 -0.000001 98.792300 88.368700 -97.884900 8.984550 -0.406207 -0.000000 -4.544360 0.400836 1.831950 16.377300 -0.000001 -0.000001 2.691770 1.127330 0.007974 6.456720 -0.000001 -0.000000 6.246070 1.348660 3.877190 12.994200 -0.242716 4.980390 -91.477300 4.710520 -72.564100 5.348090 -0.000007 -0.000001 -57.702700 9.570690 -28.654600 24.328600 0.000019 0.000005 0.926475 50.012000 -1.209080 22.291600 -0.000001 0.000005 -33.330600 5.335860 -0.984680 12.994500 -0.242716 -4.980390 89.382400 2.064950 -73.341900 -5.348130 -0.000001 -0.000004 -58.120000 16.177700 -23.195800 -24.328900 0.000322 -0.000009 0.588320 15.824300 -2.159340 -22.291500 -0.000108 -0.000004 -28.084800 5.067660 5.842440 -2.192480 -6.469440 -0.000000 -171.262000 -4.616050 -0.148737 39.081100 -0.000007 -0.000012 0.009246 -0.037036 14.018200 40.985400 -0.000006 -0.000013 -2.513850 14.823900 -67.959500 11.754300 -0.000000 0.000003 0.000040 0.166947 -9.805560 -2.192510 6.469440 -0.000001 178.858000 10.742100 -178.341000 -39.081100 -0.002282 -0.040193 0.019730 -0.075942 12.182200 -40.985400 0.000008 0.000006 -4.140450 6.120070 -67.752000 -11.754300 -0.000006 -0.000006 -0.008520 0.259892 -6.017520
0.000000 0.000000 0.000000 0.000000 0.000000 -0.000000 -2.344510 93.221300 -0.377571 87.623100 1.577200 0.943482 15.735700 0.000005 -0.000001 102.619000 88.873100 -101.786000 8.984550 -0.406207 -0.000000 -5.569070 0.394847 1.687550 16.377300 -0.000001 -0.000001 1.619370 1.165560 0.149836 6.456720 -0.000001 -0.000000 6.055530 1.529160 4.191310 12.994200 -0.242716 4.980390 -91.052100 3.277800 -72.192500 5.348090 -0.000007 -0.000001 -52.982600 0.067494 -35.565700 24.328600 0.000019 0.000005 1.301960 47.671600 -1.761480 22.291600 -0.000001 0.000005 -26.724100 5.330440 -0.735587 12.994500 -0.242716 -4.980390 89.807200 0.620637 -72.734100 -5.348130 -0.000001 -0.000004 -53.074400 6.918890 -29.003800 -24.328900 0.000322 -0.000009 0.147944 13.721800 -0.627388 -22.291500 -0.000108 -0.000004 -24.302200 5.118940 4.714830 -2.192480 -6.469440 -0.000000 -171.261000 -4.763040 -0.190225 39.081100 -0.000007 -0.000012 0.011621 -0.049586 13.189900 40.985400 -0.000006 -0.000013 -2.586210 14.875600 -67.872600 11.754300 -0.000000 0.000003 -0.000163 0.170320 -9.668580 -2.192510 6.469440 -0.000001 178.869000 10.987100 -178.388000 -39.081100 -0.002282 -0.040193 0.010878 -0.037815 11.278000 -40.985400 0.000008 0.000006 -4.975020 6.326230 -67.141200 -11.754300 -0.000006 -0.000006 -0.009013 0.263775 -5.858840
0.000000 0.000000 0.000000 0.000000 0.000000 -0.000000 -2.323050 93.301000 -0.043729 87.611800 1.531290 -0.045276 15.735700 0.000005 -0.000001 112.055000 89.361600 -111.281000 8.984550 -0.406207 -0.000000 -6.584890 0.381662 1.573100 16.377300 -0.000001 -0.000001 -0.274642 1.269070 0.377556 6.456720 -0.000001 -0.000000 5.556240 1.829250 4.334880 12.994200 -0.242716 4.980390 -90.495000 1.511610 -71.863400 5.348090 -0.000007 -0.000001 -46.737300 -7.883310 -41.947400 24.328600 0.000019 0.000005 2.243500 40.869700 -3.427600 22.291600 -0.000001 0.000005 -16.480300 5.392990 -2.658290 12.994500 -0.242716 -4.980390 90.276100 -0.866703 -72.333400 -5.348130 -0.000001 -0.000004 -46.522200 -1.516860 -34.590600 -24.328900 0.000322 -0.000009 0.120792 11.355800 -0.620153 -22.291500 -0.000108 -0.000004 -16.923100 5.242100 1.702480 -2.192480 -6.469440 -0.000000 -171.285000 -5.027260 -0.333281 39.081100 -0.000007 -0.000012 0.008939 -0.042106 11.987200 40.985400 -0.000006 -0.000013 -3.043360 14.959800 -67.538400 11.754300 -0.000000 0.000003 -0.000610 0.177331 -9.383790 -2.192510 6.469440 -0.000001 178.881000 10.786600 -178.464000 -39.081100 -0.002282 -0.040193 0.002479 0.004993 9.774490 -40.985400 0.000008 0.000006 -6.366500 6.368280 -66.083800 -11.754300 -0.000006 -0.000006 -0.009505 0.267566 -5.703890
